<svg xmlns="http://www.w3.org/2000/svg" xmlns:xlink="http://www.w3.org/1999/xlink" viewBox="0 0 500 500"><defs><clipPath id="freepik--clip-path--inject-20"><path d="M346.74,154.05l28.48,13.4,20.14,15.7s.61,6.25-4.27,7.4-23.19-11.06-23.19-11.06l-25-7.15S347.45,166.9,346.74,154.05Z" style="fill:#fff;stroke:#263238;stroke-linecap:round;stroke-linejoin:round"></path></clipPath><clipPath id="freepik--clip-path-2--inject-20"><path d="M305,221.66s-31.82-2.85-35.48-2.86c-4.91,0-14.37,7.84-7.6,25.81h0c-.4-.18-4.67-11.59,14.57-6.6h0c10.91,3.63,14.14,7.57,24.72,3.09,1.38-.59,2.87-1.12,4.36-1.6,6.64-2.12,12.27-4.17,18.21-.54l1.6,2.89S316.06,221.22,305,221.66Z" style="fill:#fff;stroke:#263238;stroke-linecap:round;stroke-linejoin:round"></path></clipPath><clipPath id="freepik--clip-path-3--inject-20"><path d="M296.51,138,262.61,134l-40.16-11s-6.5,1.3-5.67,9.23c0,.42.81,1,.81,1s14.95,8.26,39.87,15.66c5.26,1.57,28.68,9,28.68,9S305.46,156.61,296.51,138Z" style="fill:#fff;stroke:#263238;stroke-linecap:round;stroke-linejoin:round"></path></clipPath></defs><g id="freepik--background-simple--inject-20"><path d="M416.92,225.41c0,73.62-78.17,133.17-171.58,133.17S78.78,299,78.78,225.41c0-179.9,184.77-209.17,185.86-115.77C267,312.09,416.92,151.79,416.92,225.41Z" style="fill:#BA68C8"></path><path d="M416.92,225.41c0,73.62-78.17,133.17-171.58,133.17S78.78,299,78.78,225.41c0-179.9,184.77-209.17,185.86-115.77C267,312.09,416.92,151.79,416.92,225.41Z" style="fill:#fff;opacity:0.7000000000000001"></path></g><g id="freepik--Track--inject-20"><path d="M104.34,233.48v2.08L82,226.43l-20.38-9.59v8.29h-5V213.37a2,2,0,0,1,1.27-1.71,3.05,3.05,0,0,1,2.51,0l42.73,20.11A1.93,1.93,0,0,1,104.34,233.48Z" style="fill:none;stroke:#263238;stroke-linecap:round;stroke-linejoin:round"></path><path d="M438.11,213.37v11.76h-5v-8.29L406,229.62,390.39,236v-2.5a1.92,1.92,0,0,1,1.22-1.69l42.72-20.11a3.11,3.11,0,0,1,2.52,0A1.94,1.94,0,0,1,438.11,213.37Z" style="fill:none;stroke:#263238;stroke-linecap:round;stroke-linejoin:round"></path><path d="M416.46,225.13v.2l.49-.2Zm0,0v.2l.49-.2Z" style="fill:none;stroke:#263238;stroke-linecap:round;stroke-linejoin:round"></path><path d="M452.23,358.44h-405l-.09-133.31H78.81v.13c0,70.67,69.9,128.48,158.17,132.82q5.28.26,10.66.26h1.07c3.23,0,6.43-.1,9.61-.26h.47C347.06,353.74,417,295.93,417,225.26v-.13H452Z" style="fill:none;stroke:#263238;stroke-linecap:round;stroke-linejoin:round"></path><polygon points="82 226.43 78.81 225.13 61.62 225.13 61.62 216.84 82 226.43" style="fill:none;stroke:#263238;stroke-linecap:round;stroke-linejoin:round"></polygon><path d="M240.5,358.08H237c-88.27-4.34-158.17-62.15-158.17-132.82v-.13l3.19,1.3,22.34,9.13,7.15,2.92S117.19,334.6,240.5,358.08Z" style="fill:#BA68C8;stroke:#263238;stroke-miterlimit:10"></path><path d="M417,225.13v.13c0,70.67-69.89,128.48-158.16,132.82h-3.53c123.32-23.48,129-119.6,129-119.6l6.11-2.5L406,229.62l10.49-4.29Z" style="fill:#BA68C8;stroke:#263238;stroke-miterlimit:10"></path></g><g id="freepik--Stairs--inject-20"><polygon points="264.46 431.59 264.46 386.76 380.2 386.76 452.83 431.59 264.46 431.59" style="fill:#bfbfbf;stroke:#263238;stroke-linecap:round;stroke-linejoin:round"></polygon><rect x="48.26" y="386.76" width="281.58" height="16.51" style="fill:#fff;stroke:#263238;stroke-linecap:round;stroke-linejoin:round"></rect><rect x="76.42" y="400.83" width="294.42" height="16.51" style="fill:#fff;stroke:#263238;stroke-linecap:round;stroke-linejoin:round"></rect><rect x="104.57" y="414.9" width="307.25" height="16.51" style="fill:#fff;stroke:#263238;stroke-linecap:round;stroke-linejoin:round"></rect><polygon points="47.17 431.59 47.17 386.76 162.91 386.76 235.54 431.59 47.17 431.59" style="fill:#bfbfbf;stroke:#263238;stroke-linecap:round;stroke-linejoin:round"></polygon><rect x="74.26" y="343.82" width="15" height="42.85" style="fill:#bfbfbf;stroke:#263238;stroke-linecap:round;stroke-linejoin:round"></rect><rect x="186.18" y="343.82" width="15" height="42.85" style="fill:#bfbfbf;stroke:#263238;stroke-linecap:round;stroke-linejoin:round"></rect><rect x="307.13" y="373.67" width="15" height="57.74" style="fill:#bfbfbf;stroke:#263238;stroke-linecap:round;stroke-linejoin:round"></rect><path d="M381.36,430.66a7.47,7.47,0,0,1-4.24-1.32L274.3,358.82H62.43a7.5,7.5,0,0,1,0-15h214.2a7.48,7.48,0,0,1,4.24,1.31L385.61,417a7.5,7.5,0,0,1-4.25,13.69Z" style="fill:#bfbfbf;stroke:#263238;stroke-linecap:round;stroke-linejoin:round"></path><path d="M271.81,348s4.81-.39,8.44,1.73l8.43,6.07" style="fill:none;stroke:#fff;stroke-linecap:round;stroke-linejoin:round"></path><line x1="301.36" y1="365.29" x2="332.49" y2="386.67" style="fill:none;stroke:#fff;stroke-linecap:round;stroke-linejoin:round"></line><line x1="292.39" y1="358.58" x2="297.85" y2="362.66" style="fill:none;stroke:#fff;stroke-linecap:round;stroke-linejoin:round"></line><path d="M381.11,418.74a5.11,5.11,0,0,0-2.72,6.65" style="fill:none;stroke:#fff;stroke-linecap:round;stroke-linejoin:round"></path></g><g id="freepik--Skateboard--inject-20"><path d="M281,391.06a5.21,5.21,0,1,1-6.32-3.77A5.22,5.22,0,0,1,281,391.06Z" style="fill:#fff;stroke:#263238;stroke-linecap:round;stroke-linejoin:round"></path><path d="M280.86,391.62a4.7,4.7,0,1,1-5.73-3.36A4.68,4.68,0,0,1,280.86,391.62Z" style="fill:#263238"></path><path d="M278.09,392.34a1.83,1.83,0,1,1-2.24-1.31A1.83,1.83,0,0,1,278.09,392.34Z" style="fill:#fff;stroke:#263238;stroke-linecap:round;stroke-linejoin:round"></path><path d="M282,393.81l.89,3.07a1.9,1.9,0,0,0,2.52-.63l-.78-3.1A2.34,2.34,0,0,1,282,393.81Z" style="fill:#fff;stroke:#263238;stroke-linecap:round;stroke-linejoin:round"></path><path d="M273.81,387.06l2.71,7.88,2.64,4.18,3.66-1.48a4.3,4.3,0,0,1-.12-2.42c.37-1,2.92-2,2.92-2a2.31,2.31,0,0,0-.4-1.6c-.55-.73-3.36.73-4.48.15s-2.18-6.56-2.18-6.56S275.28,384.73,273.81,387.06Z" style="fill:#fff;stroke:#263238;stroke-linecap:round;stroke-linejoin:round"></path><path d="M288.25,398.5a5.21,5.21,0,1,1-6.33-3.77A5.22,5.22,0,0,1,288.25,398.5Z" style="fill:#fff;stroke:#263238;stroke-linecap:round;stroke-linejoin:round"></path><circle cx="283.61" cy="400.16" r="4.7" transform="translate(-126.73 131.49) rotate(-21.46)" style="fill:#263238"></circle><path d="M285.38,399.7a1.83,1.83,0,1,1-2.24-1.32A1.83,1.83,0,0,1,285.38,399.7Z" style="fill:#fff;stroke:#263238;stroke-linecap:round;stroke-linejoin:round"></path><path d="M285.25,391.21c.11.8-.91,1.61-2.27,1.8s-2.56-.31-2.67-1.12.9-1.61,2.27-1.8S285.14,390.4,285.25,391.21Z" style="fill:#fff;stroke:#263238;stroke-linecap:round;stroke-linejoin:round"></path><path d="M350.22,368.93a5.2,5.2,0,1,1-6.32-3.77A5.19,5.19,0,0,1,350.22,368.93Z" style="fill:#fff;stroke:#263238;stroke-linecap:round;stroke-linejoin:round"></path><path d="M350.09,369.48a4.7,4.7,0,1,1-5.74-3.35A4.7,4.7,0,0,1,350.09,369.48Z" style="fill:#263238"></path><path d="M347.32,370.21a1.84,1.84,0,1,1-2.25-1.31A1.84,1.84,0,0,1,347.32,370.21Z" style="fill:#fff;stroke:#263238;stroke-linecap:round;stroke-linejoin:round"></path><path d="M351.17,371.68l.89,3.07a1.92,1.92,0,0,0,2.53-.64l-.78-3.09A2.36,2.36,0,0,1,351.17,371.68Z" style="fill:#fff;stroke:#263238;stroke-linecap:round;stroke-linejoin:round"></path><path d="M343,364.93l2.71,7.88,2.64,4.18,3.66-1.48a4.4,4.4,0,0,1-.12-2.42c.37-.95,2.92-2,2.92-2a2.26,2.26,0,0,0-.4-1.6c-.55-.72-3.36.74-4.48.16s-2.18-6.57-2.18-6.57S344.51,362.6,343,364.93Z" style="fill:#fff;stroke:#263238;stroke-linecap:round;stroke-linejoin:round"></path><path d="M357.47,376.37a5.21,5.21,0,1,1-6.32-3.77A5.21,5.21,0,0,1,357.47,376.37Z" style="fill:#fff;stroke:#263238;stroke-linecap:round;stroke-linejoin:round"></path><path d="M357.38,376.84a4.7,4.7,0,1,1-5.74-3.36A4.71,4.71,0,0,1,357.38,376.84Z" style="fill:#263238"></path><path d="M354.61,377.57a1.84,1.84,0,1,1-2.25-1.32A1.84,1.84,0,0,1,354.61,377.57Z" style="fill:#fff;stroke:#263238;stroke-linecap:round;stroke-linejoin:round"></path><path d="M354.47,369.08c.11.8-.9,1.61-2.27,1.8s-2.56-.31-2.67-1.12.9-1.62,2.27-1.81S354.36,368.27,354.47,369.08Z" style="fill:#fff;stroke:#263238;stroke-linecap:round;stroke-linejoin:round"></path><path d="M234.27,392s12.3,8.11,34.9,1.93c16.13-4.4,70.74-22.31,86.67-27.55a45.43,45.43,0,0,0,10.07-4.74c6.31-4,15.45-11,14.06-17.09-2.08-9.24-31.07,9.45-31.07,9.45L258,382.34S224.21,382.07,234.27,392Z" style="fill:#263238"></path><path d="M236.26,390.2s12,7.16,34,1.15c15.7-4.29,68.89-21.73,84.4-26.84a43.33,43.33,0,0,0,9.81-4.62c6.15-3.89,15-9.94,13.7-15.9" style="fill:none;stroke:#fff;stroke-linecap:round;stroke-linejoin:round"></path></g></svg>
